<svg xmlns="http://www.w3.org/2000/svg" version="1.1" xmlns:xlink="http://www.w3.org/1999/xlink" xmlns:svgjs="http://svgjs.dev/svgjs" width="1500" height="935" viewBox="0 0 1500 935"><g transform="matrix(1,0,0,1,-0.9090909090909918,0.37854251012157647)"><svg viewBox="0 0 396 247" data-background-color="#403085" preserveAspectRatio="xMidYMid meet" height="935" width="1500" xmlns="http://www.w3.org/2000/svg" xmlns:xlink="http://www.w3.org/1999/xlink"><g id="tight-bounds" transform="matrix(1,0,0,1,0.2400000000000091,-0.09999999999999432)"><svg viewBox="0 0 395.52 247.2" height="247.2" width="395.52"><g><svg></svg></g><g><svg viewBox="0 0 395.52 247.2" height="247.2" width="395.52"><g transform="matrix(1,0,0,1,75.54432000000001,88.01185285711432)"><svg viewBox="0 0 244.43135999999996 71.17629428577135" height="71.17629428577135" width="244.43135999999996"><g><svg viewBox="0 0 244.43135999999996 71.17629428577135" height="71.17629428577135" width="244.43135999999996"><g><svg viewBox="0 0 244.43135999999996 71.17629428577135" height="71.17629428577135" width="244.43135999999996"><g><svg viewBox="0 0 244.43135999999996 71.17629428577135" height="71.17629428577135" width="244.43135999999996"><g id="textblocktransform"><svg viewBox="0 0 244.43135999999996 71.17629428577135" height="71.17629428577135" width="244.43135999999996" id="textblock"><g><svg viewBox="0 0 244.43135999999996 38.38909207916577" height="38.38909207916577" width="244.43135999999996"><g transform="matrix(1,0,0,1,0,0)"><svg width="244.43135999999996" viewBox="0.8833333333333333 -36.7 234.9466666666667 36.900000000000006" height="38.38909207916577" data-palette-color="#f8f2eb"><path d="M5.65 0L5.65 0Q2.3-0.5 1.3-3.08 0.3-5.65 1.7-9.6L1.7-9.6 8.3-28.35Q9.2-30.95 10.38-32.8 11.55-34.65 13.33-35.65 15.1-36.65 17.75-36.65L17.75-36.65Q21.75-36.65 23.78-34.45 25.8-32.25 27.15-28.35L27.15-28.35 33.7-9.6Q35.1-5.65 34.23-3.08 33.35-0.5 29.95 0L29.95 0Q27.2 0.35 25.18-0.65 23.15-1.65 22.75-3.9L22.75-3.9Q22.45-5.4 22.68-6.4 22.9-7.4 23.1-8L23.1-8Q23.25-8.5 23.13-8.97 23-9.45 22.35-9.45L22.35-9.45 13.05-9.45Q12.4-9.45 12.28-8.97 12.15-8.5 12.35-8L12.35-8Q12.55-7.4 12.75-6.4 12.95-5.4 12.7-3.9L12.7-3.9Q12.3-1.65 10.35-0.65 8.4 0.35 5.65 0ZM14.1-16.45L21.4-16.45 18.8-24.6Q18.7-25.1 18.48-25.38 18.25-25.65 17.75-25.65L17.75-25.65Q17.25-25.65 17.03-25.38 16.8-25.1 16.65-24.6L16.65-24.6 14.1-16.45ZM47.6-22.65L48.15-22.55 55.65-33.15Q57.65-36 60-36.38 62.35-36.75 64.25-35.25L64.25-35.25Q65.5-34.3 65.9-32.7 66.3-31.1 65.65-29.3 65-27.5 63.05-25.9L63.05-25.9 54.7-19.15 54.7-18.1Q56.3-18.1 58.45-17.7 60.6-17.3 62.35-15.9L62.35-15.9Q63.75-14.85 64.77-13.5 65.8-12.15 66.4-10.18 67-8.2 67-5.2L67-5.2Q67-2.75 65.67-1.28 64.35 0.2 61.75 0.2L61.75 0.2Q59.15 0.2 57.77-1.28 56.4-2.75 56.4-5.2L56.4-5.2Q56.4-7.95 55.52-9.58 54.65-11.2 53.2-11.95 51.75-12.7 50.05-12.7L50.05-12.7 47.6-12.7 47.6-4.85Q47.6-2.7 46.12-1.3 44.65 0.1 42.35 0.1L42.35 0.1Q40.05 0.1 38.57-1.3 37.1-2.7 37.1-4.85L37.1-4.85 37.1-31.3Q37.1-33.5 38.55-35 40-36.5 42.35-36.5L42.35-36.5Q44.85-36.5 46.22-35.02 47.6-33.55 47.6-31.4L47.6-31.4 47.6-22.65ZM74.6-0.15L74.6-0.15Q72.3-0.15 70.8-1.55 69.3-2.95 69.3-5.1L69.3-5.1 69.3-31.55Q69.3-33.75 70.75-35.23 72.2-36.7 74.55-36.7L74.55-36.7Q77.05-36.7 78.45-35.23 79.85-33.75 79.85-31.65L79.85-31.65 79.85-22.4 89.15-22.4 89.15-31.55Q89.15-33.75 90.6-35.23 92.05-36.7 94.5-36.7L94.5-36.7Q96.95-36.7 98.35-35.23 99.75-33.75 99.75-31.65L99.75-31.65 99.75-5.1Q99.75-2.95 98.27-1.55 96.8-0.15 94.6-0.15L94.6-0.15Q92.2-0.15 90.67-1.55 89.15-2.95 89.15-5.1L89.15-5.1 89.15-15.05 79.85-15.05 79.85-5.1Q79.85-2.95 78.37-1.55 76.9-0.15 74.6-0.15ZM121.59 0L113.69-0.05Q111.39-0.15 109.42-0.7 107.44-1.25 105.94-2.58 104.44-3.9 103.62-6.25 102.79-8.6 102.79-12.25L102.79-12.25Q102.79-15.8 103.77-18.4 104.74-21 106.09-22.55 107.44-24.1 108.54-24.45L108.54-24.45 108.29-25.4 107.44-25.4Q105.14-25.4 103.82-26.88 102.49-28.35 102.44-30.85L102.44-30.85Q102.39-33.35 103.77-34.88 105.14-36.4 107.44-36.4L107.44-36.4 121.19-36.4Q126.59-36.4 128.99-33.83 131.39-31.25 131.39-27.15L131.39-27.15Q131.39-23.85 129.87-21.65 128.34-19.45 125.29-19L125.29-19 125.29-18.25Q128.59-18.1 130.67-15.98 132.74-13.85 132.74-9.7L132.74-9.7Q132.74-5.2 130.14-2.58 127.54 0.05 121.59 0L121.59 0ZM112.34-24.65L112.34-22.5Q112.34-21.4 112.74-21.05 113.14-20.7 114.24-20.7L114.24-20.7 118.84-20.7Q120.74-20.7 121.74-21.28 122.74-21.85 122.74-23.55L122.74-23.55Q122.74-25.3 121.74-25.85 120.74-26.4 118.84-26.4L118.84-26.4 114.24-26.4Q113.14-26.4 112.74-26.1 112.34-25.8 112.34-24.65L112.34-24.65ZM112.34-15.1L112.34-12.45Q112.34-11.35 112.77-10.95 113.19-10.55 114.34-10.55L114.34-10.55 119.49-10.55Q121.44-10.55 122.49-11.25 123.54-11.95 123.54-13.75L123.54-13.75Q123.54-15.55 122.49-16.23 121.44-16.9 119.49-16.9L119.49-16.9 114.34-16.9Q113.19-16.9 112.77-16.55 112.34-16.2 112.34-15.1L112.34-15.1ZM139.14 0L139.14 0Q135.79-0.5 134.79-3.08 133.79-5.65 135.19-9.6L135.19-9.6 141.79-28.35Q142.69-30.95 143.87-32.8 145.04-34.65 146.81-35.65 148.59-36.65 151.24-36.65L151.24-36.65Q155.24-36.65 157.27-34.45 159.29-32.25 160.64-28.35L160.64-28.35 167.19-9.6Q168.59-5.65 167.72-3.08 166.84-0.5 163.44 0L163.44 0Q160.69 0.35 158.67-0.65 156.64-1.65 156.24-3.9L156.24-3.9Q155.94-5.4 156.17-6.4 156.39-7.4 156.59-8L156.59-8Q156.74-8.5 156.62-8.97 156.49-9.45 155.84-9.45L155.84-9.45 146.54-9.45Q145.89-9.45 145.77-8.97 145.64-8.5 145.84-8L145.84-8Q146.04-7.4 146.24-6.4 146.44-5.4 146.19-3.9L146.19-3.9Q145.79-1.65 143.84-0.65 141.89 0.35 139.14 0ZM147.59-16.45L154.89-16.45 152.29-24.6Q152.19-25.1 151.97-25.38 151.74-25.65 151.24-25.65L151.24-25.65Q150.74-25.65 150.52-25.38 150.29-25.1 150.14-24.6L150.14-24.6 147.59-16.45ZM174.59 0L174.59 0Q171.24-0.5 170.24-3.08 169.24-5.65 170.64-9.6L170.64-9.6 177.24-28.35Q178.14-30.95 179.31-32.8 180.49-34.65 182.26-35.65 184.04-36.65 186.69-36.65L186.69-36.65Q190.69-36.65 192.71-34.45 194.74-32.25 196.09-28.35L196.09-28.35 202.64-9.6Q204.04-5.65 203.16-3.08 202.29-0.5 198.89 0L198.89 0Q196.14 0.35 194.11-0.65 192.09-1.65 191.69-3.9L191.69-3.9Q191.39-5.4 191.61-6.4 191.84-7.4 192.04-8L192.04-8Q192.19-8.5 192.06-8.97 191.94-9.45 191.29-9.45L191.29-9.45 181.99-9.45Q181.34-9.45 181.21-8.97 181.09-8.5 181.29-8L181.29-8Q181.49-7.4 181.69-6.4 181.89-5.4 181.64-3.9L181.64-3.9Q181.24-1.65 179.29-0.65 177.34 0.35 174.59 0ZM183.04-16.45L190.34-16.45 187.74-24.6Q187.64-25.1 187.41-25.38 187.19-25.65 186.69-25.65L186.69-25.65Q186.19-25.65 185.96-25.38 185.74-25.1 185.59-24.6L185.59-24.6 183.04-16.45ZM230.33 0L230.33 0Q227.83 0 226.38-1.53 224.94-3.05 224.83-5.5L224.83-5.5Q224.63-9.75 222.71-11.53 220.78-13.3 217.58-13.3L217.58-13.3 216.58-13.3 216.58-5.3Q216.58-2.7 215.19-1.35 213.78 0 211.48 0L211.48 0Q209.03 0 207.63-1.35 206.23-2.7 206.23-5.3L206.23-5.3 206.23-12.35Q206.23-17.65 207.81-20.4 209.38-23.15 211.83-24.35L211.83-24.35 211.58-25.3 210.78-25.3Q208.48-25.3 207.16-26.78 205.83-28.25 205.73-30.8L205.73-30.8Q205.69-33.3 207.08-34.85 208.48-36.4 210.78-36.4L210.78-36.4 223.53-36.4Q228.88-36.4 232.19-33.8 235.48-31.2 235.48-25.5L235.48-25.5Q235.48-22.55 234.48-20.58 233.48-18.6 231.94-17.55 230.38-16.5 228.69-16.3L228.69-16.3 228.69-15.65Q231.78-14.9 233.81-12.35 235.83-9.8 235.83-5.5L235.83-5.5Q235.83-2.75 234.36-1.38 232.88 0 230.33 0ZM216.33-24.65L216.33-20.95Q216.33-19.85 216.73-19.5 217.13-19.15 218.23-19.15L218.23-19.15 222.94-19.15Q225.03-19.15 225.98-20.1 226.94-21.05 226.94-22.75L226.94-22.75Q226.94-24.5 225.98-25.45 225.03-26.4 222.94-26.4L222.94-26.4 218.23-26.4Q217.13-26.4 216.73-26.1 216.33-25.8 216.33-24.65L216.33-24.65Z" opacity="1" transform="matrix(1,0,0,1,0,0)" fill="#f8f2eb" class="wordmark-text-0" data-fill-palette-color="primary" id="text-0"></path></svg></g></svg></g><g transform="matrix(1,0,0,1,0,47.45183538084691)"><svg viewBox="0 0 244.43135999999996 23.724458904924447" height="23.724458904924447" width="244.43135999999996"><g transform="matrix(1,0,0,1,0,0)"><svg width="244.43135999999996" viewBox="4.25 -38 515.15 50" height="23.724458904924447" data-palette-color="#f8f2eb"><path d="M32.38 0L27.5 0 12.13-25.7 9.2-32.93 9.05-32.9 10-25 10 0 5 0 5-32.25 4.25-37.5 10.15-38 25.55-12.18 28.55-4.33 28.7-4.35 27.5-12.75 27.5-37.5 32.38-38 32.38 0ZM62.6-5.63L65.33-3.23Q64.55-2.43 63.63-1.75 62.7-1.07 61.58-0.59 60.45-0.1 59.09 0.16 57.73 0.43 56.05 0.43L56.05 0.43Q52.73 0.43 50.38-0.75 48.03-1.93 46.54-3.9 45.05-5.88 44.37-8.43 43.68-10.98 43.68-13.75L43.68-13.75Q43.68-15.53 44-17.26 44.33-19 44.98-20.58 45.63-22.15 46.6-23.5 47.58-24.85 48.88-25.83 50.18-26.8 51.82-27.36 53.45-27.93 55.43-27.93L55.43-27.93Q58.13-27.93 60.1-27.05 62.08-26.18 63.38-24.6 64.68-23.03 65.3-20.83 65.93-18.63 65.93-15.95L65.93-15.95Q65.93-15.18 65.88-14.25 65.83-13.33 65.73-12.5L65.73-12.5 48.43-12.5Q48.43-10.63 48.94-9 49.45-7.38 50.38-6.16 51.3-4.95 52.62-4.26 53.93-3.58 55.55-3.58L55.55-3.58Q57.15-3.58 58.34-3.81 59.53-4.05 60.38-4.39 61.23-4.73 61.77-5.08 62.3-5.43 62.6-5.63L62.6-5.63ZM52.05-16.25L61.18-16.25Q61.2-16.53 61.22-16.8 61.23-17.07 61.23-17.35L61.23-17.35Q61.23-18.78 60.9-19.98 60.58-21.18 59.92-22.06 59.25-22.95 58.23-23.45 57.2-23.95 55.8-23.95L55.8-23.95Q54.13-23.95 52.94-23.41 51.75-22.88 50.94-22.04 50.13-21.2 49.64-20.2 49.15-19.2 48.9-18.3L48.9-18.3 47.6-15.58 52.05-16.25ZM92.98-27.5L97.28-12 98.33-5 99.33-12 103.61-27.5 107.66-27.93 99.93 0 96.13 0 91.86-15.5 90.91-22.5 89.88-15.5 85.61 0 81.81 0 74.23-27.5 78.53-28 82.93-12 84.01-5 85.01-12 89.28-27.5 92.98-27.5ZM131.51-26.18L130.06-22.98Q129.61-23.2 128.98-23.43 128.36-23.65 127.68-23.83 127.01-24 126.32-24.1 125.63-24.2 125.01-24.2L125.01-24.2Q122.36-24.2 121.26-23.41 120.16-22.63 120.16-21.05L120.16-21.05Q120.16-20 120.88-19.31 121.61-18.63 122.76-18.07 123.91-17.53 125.32-17.04 126.73-16.55 128.08-15.88L128.08-15.88Q129.06-15.4 130.06-14.75 131.06-14.1 131.86-13.23 132.66-12.35 133.16-11.25 133.66-10.15 133.66-8.78L133.66-8.78Q133.66-6.25 132.81-4.5 131.96-2.75 130.5-1.66 129.03-0.58 127.07-0.08 125.11 0.43 122.88 0.43L122.88 0.43Q122.03 0.43 120.96 0.26 119.88 0.1 118.81-0.19 117.73-0.48 116.76-0.88 115.78-1.28 115.13-1.73L115.13-1.73 116.78-5.03Q117.38-4.73 118.21-4.46 119.03-4.2 119.91-4 120.78-3.8 121.65-3.69 122.51-3.58 123.18-3.58L123.18-3.58Q124.33-3.58 125.4-3.81 126.46-4.05 127.27-4.58 128.08-5.1 128.57-5.94 129.06-6.78 129.06-8L129.06-8Q129.06-8.93 128.67-9.63 128.28-10.33 127.62-10.86 126.96-11.4 126.08-11.85 125.21-12.3 124.23-12.71 123.26-13.13 122.23-13.56 121.21-14 120.28-14.53L120.28-14.53Q119.41-15.03 118.6-15.63 117.78-16.23 117.16-16.98 116.53-17.73 116.16-18.66 115.78-19.6 115.78-20.8L115.78-20.8Q115.78-22.7 116.46-24.06 117.13-25.43 118.36-26.28 119.58-27.13 121.31-27.53 123.03-27.93 125.11-27.93L125.11-27.93Q126.06-27.93 126.98-27.78 127.91-27.63 128.76-27.39 129.61-27.15 130.31-26.83 131.01-26.5 131.51-26.18L131.51-26.18ZM174.64-3.3L175.94-9.1 182.66-27.5 187.16-27.93 176.81 0.43Q176.04 2.53 175.13 4.6 174.21 6.68 173.06 8.31 171.91 9.95 170.53 10.98 169.14 12 167.44 12L167.44 12Q166.16 12 164.94 11.49 163.71 10.98 162.69 10.08L162.69 10.08 164.51 7.4Q164.94 7.7 165.49 7.95 166.04 8.2 166.64 8.2L166.64 8.2Q167.46 8.2 168.24 7.56 169.01 6.93 169.73 5.93 170.44 4.93 171.05 3.68 171.66 2.43 172.16 1.18L172.16 1.18 161.74-27.5 166.49-27.93 173.34-9.1 174.64-3.3ZM207.04 0.43L207.04 0.43Q204.27 0.43 201.98-0.66 199.69-1.75 198.04-3.66 196.39-5.58 195.48-8.19 194.57-10.8 194.57-13.83L194.57-13.83Q194.57-16.85 195.44-19.44 196.32-22.03 197.94-23.91 199.57-25.8 201.88-26.86 204.19-27.93 207.04-27.93L207.04-27.93Q209.82-27.93 212.12-26.86 214.42-25.8 216.07-23.91 217.72-22.03 218.64-19.44 219.57-16.85 219.57-13.83L219.57-13.83Q219.57-10.8 218.68-8.19 217.79-5.58 216.17-3.66 214.54-1.75 212.22-0.66 209.89 0.43 207.04 0.43ZM214.82-13.15L214.82-13.15Q214.82-15.18 214.38-17.13 213.94-19.07 212.99-20.61 212.04-22.15 210.54-23.1 209.04-24.05 206.94-24.05L206.94-24.05Q204.94-24.05 203.49-23.23 202.04-22.4 201.12-21.03 200.19-19.65 199.75-17.9 199.32-16.15 199.32-14.3L199.32-14.3Q199.32-12.28 199.75-10.33 200.19-8.38 201.13-6.85 202.07-5.33 203.55-4.39 205.04-3.45 207.14-3.45L207.14-3.45Q209.12-3.45 210.57-4.28 212.02-5.1 212.97-6.46 213.92-7.83 214.37-9.58 214.82-11.33 214.82-13.15ZM245.99-6.45L245.99-27.5 250.74-28 250.74 0 245.99 0 245.99-4.08 244.47-1.4Q244.02-1.1 243.41-0.78 242.79-0.45 242.02-0.19 241.24 0.08 240.32 0.25 239.39 0.43 238.37 0.43L238.37 0.43Q236.37 0.43 234.93-0.3 233.49-1.03 232.57-2.33 231.64-3.63 231.19-5.41 230.74-7.2 230.74-9.3L230.74-9.3 230.74-27.5 235.49-28 235.49-9.3Q235.49-6.6 236.58-5.09 237.67-3.58 239.99-3.58L239.99-3.58Q240.84-3.58 241.67-3.85 242.49-4.13 243.27-4.55 244.04-4.98 244.73-5.48 245.42-5.98 245.99-6.45L245.99-6.45ZM303.25-24.78L300.77-21.95Q299.8-22.83 298.46-23.38 297.12-23.93 295.7-23.93L295.7-23.93Q293.6-23.93 292.12-23.14 290.65-22.35 289.74-21 288.82-19.65 288.4-17.86 287.97-16.07 287.97-14.1L287.97-14.1Q287.97-12.05 288.36-10.19 288.75-8.33 289.67-6.9 290.6-5.48 292.14-4.64 293.67-3.8 295.97-3.8L295.97-3.8Q297.9-3.8 299.24-4.25 300.57-4.7 301.3-5.2L301.3-5.2 303.1-1.68Q301.7-0.73 299.84-0.15 297.97 0.43 295.62 0.43L295.62 0.43Q292.5 0.43 290.15-0.81 287.8-2.05 286.24-4.11 284.67-6.18 283.89-8.86 283.1-11.55 283.1-14.43L283.1-14.43Q283.1-17.03 283.86-19.46 284.62-21.9 286.19-23.78 287.75-25.65 290.14-26.79 292.52-27.93 295.75-27.93L295.75-27.93Q298.05-27.93 299.86-27.21 301.67-26.5 303.25-24.78L303.25-24.78ZM331.78-4.5L332.28 0 327.03 0 327.03-4.05 324.68-1.25Q324.25-0.93 323.7-0.63 323.15-0.33 322.59-0.09 322.03 0.15 321.46 0.29 320.9 0.43 320.43 0.43L320.43 0.43Q318.55 0.43 316.84-0.16 315.13-0.75 313.84-1.89 312.55-3.03 311.79-4.71 311.03-6.4 311.03-8.6L311.03-8.6Q311.03-10.93 311.96-12.64 312.9-14.35 314.36-15.49 315.83-16.63 317.63-17.19 319.43-17.75 321.15-17.75L321.15-17.75Q322.58-17.75 323.66-17.6 324.75-17.45 325.5-17.25L325.5-17.25Q326.38-17.03 327.03-16.75L327.03-16.75 327.03-17.63Q327.03-19.1 326.85-20.28 326.68-21.45 326.14-22.26 325.6-23.08 324.59-23.5 323.58-23.93 321.9-23.93L321.9-23.93Q320.55-23.93 319.3-23.74 318.05-23.55 317.08-23.33L317.08-23.33Q315.93-23.05 314.95-22.75L314.95-22.75 313.15-26.1Q314.25-26.6 315.65-27L315.65-27Q316.85-27.35 318.5-27.64 320.15-27.93 322.15-27.93L322.15-27.93Q325.03-27.93 326.9-27.15 328.78-26.38 329.85-24.98 330.93-23.58 331.35-21.61 331.78-19.65 331.78-17.25L331.78-17.25 331.78-4.5ZM327.03-6.85L327.03-13.33Q326.33-13.43 325.53-13.53L325.53-13.53Q324.85-13.6 323.98-13.68 323.1-13.75 322.15-13.75L322.15-13.75Q320.75-13.75 319.59-13.48 318.43-13.2 317.58-12.59 316.73-11.98 316.25-11 315.78-10.03 315.78-8.63L315.78-8.63Q315.78-7.5 316.15-6.58 316.53-5.65 317.18-4.98 317.83-4.3 318.71-3.94 319.6-3.58 320.63-3.58L320.63-3.58Q321.1-3.58 321.64-3.71 322.18-3.85 322.71-4.08 323.25-4.3 323.79-4.6 324.33-4.9 324.8-5.2L324.8-5.2Q325.93-5.93 327.03-6.85L327.03-6.85ZM348.95-21.1L348.95 0 344.2 0 344.2-27.5 348.95-28 348.95-23.43 350.48-26.1Q350.93-26.4 351.63-26.73 352.33-27.05 353.19-27.31 354.05-27.58 355.05-27.75 356.05-27.93 357.08-27.93L357.08-27.93Q359.05-27.93 360.42-27.29 361.78-26.65 362.63-25.45 363.48-24.25 363.84-22.55 364.2-20.85 364.2-18.75L364.2-18.75 364.2 0 359.45 0 359.45-18.75Q359.45-20.1 359.27-21.08 359.08-22.05 358.62-22.69 358.15-23.33 357.38-23.63 356.6-23.93 355.45-23.93L355.45-23.93Q354.6-23.93 353.73-23.66 352.85-23.4 352.02-22.99 351.18-22.58 350.39-22.08 349.6-21.58 348.95-21.1L348.95-21.1ZM403.81-23.5L403.81-9.4Q403.81-7.75 404-6.64 404.19-5.53 404.55-4.84 404.91-4.15 405.45-3.86 405.99-3.58 406.69-3.58L406.69-3.58Q407.24-3.58 407.69-3.64 408.14-3.7 408.46-3.8L408.46-3.8Q408.84-3.9 409.14-4.03L409.14-4.03 410.86-1Q410.66-0.8 410.22-0.56 409.79-0.33 409.19-0.1 408.59 0.13 407.82 0.28 407.06 0.43 406.19 0.43L406.19 0.43Q403.94 0.43 402.54-0.4 401.14-1.23 400.36-2.65 399.59-4.08 399.32-5.96 399.06-7.85 399.06-10L399.06-10 399.06-23.5 395.31-23.5 395.31-27.5 399.06-27.5 399.06-32.73 403.69-35.5 403.69-27.5 412.19-27.5 411.69-23.5 403.81-23.5ZM434.51-23.7L434.51-23.7Q433.51-23.7 432.54-23.3 431.56-22.9 430.66-22.23 429.76-21.55 428.96-20.65 428.16-19.75 427.49-18.75L427.49-18.75 427.49 0 422.74 0 422.74-27.5 427.49-28 427.49-22.38 429.99-26.75Q430.31-26.95 430.8-27.16 431.29-27.38 431.91-27.54 432.54-27.7 433.25-27.81 433.96-27.93 434.71-27.93L434.71-27.93Q435.84-27.93 436.6-27.73 437.36-27.53 437.74-27.35L437.74-27.35 437.49-23.2Q437.11-23.33 436.36-23.51 435.61-23.7 434.51-23.7ZM461.67-6.45L461.67-27.5 466.42-28 466.42 0 461.67 0 461.67-4.08 460.14-1.4Q459.69-1.1 459.08-0.78 458.47-0.45 457.69-0.19 456.92 0.08 455.99 0.25 455.07 0.43 454.04 0.43L454.04 0.43Q452.04 0.43 450.6-0.3 449.17-1.03 448.24-2.33 447.32-3.63 446.87-5.41 446.42-7.2 446.42-9.3L446.42-9.3 446.42-27.5 451.17-28 451.17-9.3Q451.17-6.6 452.25-5.09 453.34-3.58 455.67-3.58L455.67-3.58Q456.52-3.58 457.34-3.85 458.17-4.13 458.94-4.55 459.72-4.98 460.4-5.48 461.09-5.98 461.67-6.45L461.67-6.45ZM493.07-26.18L491.62-22.98Q491.17-23.2 490.54-23.43 489.92-23.65 489.24-23.83 488.57-24 487.88-24.1 487.19-24.2 486.57-24.2L486.57-24.2Q483.92-24.2 482.82-23.41 481.72-22.63 481.72-21.05L481.72-21.05Q481.72-20 482.44-19.31 483.17-18.63 484.32-18.07 485.47-17.53 486.88-17.04 488.29-16.55 489.64-15.88L489.64-15.88Q490.62-15.4 491.62-14.75 492.62-14.1 493.42-13.23 494.22-12.35 494.72-11.25 495.22-10.15 495.22-8.78L495.22-8.78Q495.22-6.25 494.37-4.5 493.52-2.75 492.06-1.66 490.59-0.58 488.63-0.08 486.67 0.43 484.44 0.43L484.44 0.43Q483.59 0.43 482.52 0.26 481.44 0.1 480.37-0.19 479.29-0.48 478.32-0.88 477.34-1.28 476.69-1.73L476.69-1.73 478.34-5.03Q478.94-4.73 479.77-4.46 480.59-4.2 481.47-4 482.34-3.8 483.21-3.69 484.07-3.58 484.74-3.58L484.74-3.58Q485.89-3.58 486.96-3.81 488.02-4.05 488.83-4.58 489.64-5.1 490.13-5.94 490.62-6.78 490.62-8L490.62-8Q490.62-8.93 490.23-9.63 489.84-10.33 489.18-10.86 488.52-11.4 487.64-11.85 486.77-12.3 485.79-12.71 484.82-13.13 483.79-13.56 482.77-14 481.84-14.53L481.84-14.53Q480.97-15.03 480.16-15.63 479.34-16.23 478.72-16.98 478.09-17.73 477.72-18.66 477.34-19.6 477.34-20.8L477.34-20.8Q477.34-22.7 478.02-24.06 478.69-25.43 479.92-26.28 481.14-27.13 482.87-27.53 484.59-27.93 486.67-27.93L486.67-27.93Q487.62-27.93 488.54-27.78 489.47-27.63 490.32-27.39 491.17-27.15 491.87-26.83 492.57-26.5 493.07-26.18L493.07-26.18ZM511.02-23.5L511.02-9.4Q511.02-7.75 511.21-6.64 511.4-5.53 511.76-4.84 512.12-4.15 512.66-3.86 513.2-3.58 513.9-3.58L513.9-3.58Q514.45-3.58 514.9-3.64 515.35-3.7 515.67-3.8L515.67-3.8Q516.05-3.9 516.35-4.03L516.35-4.03 518.07-1Q517.87-0.8 517.43-0.56 517-0.33 516.4-0.1 515.8 0.13 515.03 0.28 514.27 0.43 513.4 0.43L513.4 0.43Q511.15 0.43 509.75-0.4 508.35-1.23 507.57-2.65 506.8-4.08 506.53-5.96 506.27-7.85 506.27-10L506.27-10 506.27-23.5 502.52-23.5 502.52-27.5 506.27-27.5 506.27-32.73 510.9-35.5 510.9-27.5 519.4-27.5 518.9-23.5 511.02-23.5Z" opacity="1" transform="matrix(1,0,0,1,0,0)" fill="#f8f2eb" class="slogan-text-1" data-fill-palette-color="secondary" id="text-1"></path></svg></g></svg></g></svg></g></svg></g></svg></g></svg></g></svg></g><g><path d="M245.816 0c68.262 0 123.6 55.338 123.6 123.6 0 68.262-55.338 123.6-123.6 123.6-54.219 0-100.284-34.911-116.943-83.48h1.832c16.587 47.596 61.861 81.749 115.111 81.749 67.306 0 121.869-54.563 121.869-121.869 0-67.306-54.563-121.869-121.869-121.869-53.25 0-98.524 34.153-115.111 81.749h-1.832c16.659-48.569 62.724-83.48 116.943-83.48z" fill="#f8f2eb" stroke="transparent" data-fill-palette-color="tertiary"></path></g></svg></g><defs></defs></svg><rect width="395.52" height="247.2" fill="none" stroke="none" visibility="hidden"></rect></g></svg></g></svg>